<svg aria-hidden="true" style="width:0;height:0;position:absolute;overflow:hidden" xmlns="http://www.w3.org/2000/svg"><defs><symbol id="icon-search" viewBox="0 0 32 32"><path d="m31.008 27.231-7.58-6.447c-.784-.705-1.622-1.029-2.299-.998a11.954 11.954 0 0 0 2.87-7.787c0-6.627-5.373-12-12-12s-12 5.373-12 12 5.373 12 12 12c2.972 0 5.691-1.081 7.787-2.87-.031.677.293 1.515.998 2.299l6.447 7.58c1.104 1.226 2.907 1.33 4.007.23s.997-2.903-.23-4.007zM12 20a8 8 0 1 1 0-16 8 8 0 0 1 0 16z"/></symbol><symbol id="icon-film" viewBox="0 0 31 32"><path fill="none" stroke="#fff" style="stroke:var(--color1,#fff)" stroke-linejoin="round" stroke-linecap="round" stroke-width="1.969" d="M24.972 2.42H6.044a2.638 2.638 0 0 0-2.638 2.638v18.928a2.638 2.638 0 0 0 2.638 2.638h18.928a2.638 2.638 0 0 0 2.638-2.638V5.058a2.638 2.638 0 0 0-2.638-2.638zM9.456 2.42v24.205M21.559 2.42v24.205M3.405 14.523H27.61M3.405 8.472h6.051M3.405 20.574h6.051M21.559 20.574h6.051M21.559 8.472h6.051"/></symbol><symbol id="icon-heart" viewBox="0 0 34 32"><path fill="#b92f2c" style="fill:var(--color2,#b92f2c)" d="m17.231 31.705-2.412-2.412C5.859 21.367.001 16.025.001 9.478.001 4.136 4.136.001 9.478.001c2.929 0 5.858 1.378 7.754 3.618 1.895-2.24 4.825-3.618 7.754-3.618 5.342 0 9.477 4.135 9.477 9.477 0 6.548-5.858 11.889-14.818 19.815l-2.412 2.412z"/></symbol><symbol id="icon-close" viewBox="5 0 25 25"><path style="stroke:var(--color3,#000)" stroke-width="1.333" d="M7.012 1.333 24.987 20M6.667 19.654 25.334 1.679"/></symbol></defs></svg>