<svg xmlns="http://www.w3.org/2000/svg" aria-hidden="true" style="position:absolute;width:0;height:0;overflow:hidden">
  <defs>
    <symbol id="icon-search" viewBox="0 0 32 32">
      <path d="m31.008 27.231-7.58-6.447c-.784-.705-1.622-1.029-2.299-.998a11.954 11.954 0 0 0 2.87-7.787c0-6.627-5.373-12-12-12s-12 5.373-12 12 5.373 12 12 12c2.972 0 5.691-1.081 7.787-2.87-.031.677.293 1.515.998 2.299l6.447 7.58c1.104 1.226 2.907 1.33 4.007.23s.997-2.903-.23-4.007zM12 20a8 8 0 1 1 0-16 8 8 0 0 1 0 16z"/>
    </symbol>
    <symbol id="icon-film" viewBox="0 0 31 32">
      <path fill="none" stroke="#fff" stroke-linecap="round" stroke-linejoin="round" stroke-width="1.969" d="M24.972 2.42H6.044a2.638 2.638 0 0 0-2.638 2.638v18.928a2.638 2.638 0 0 0 2.638 2.638h18.928a2.638 2.638 0 0 0 2.638-2.638V5.058a2.638 2.638 0 0 0-2.638-2.638zM9.456 2.42v24.205M21.559 2.42v24.205M3.405 14.523H27.61M3.405 8.472h6.051M3.405 20.574h6.051M21.559 20.574h6.051M21.559 8.472h6.051" style="stroke:var(--color1, #fff)"/>
    </symbol>
    <symbol id="icon-heart" viewBox="0 0 34 32">
      <path d="m17.231 31.705-2.412-2.412C5.859 21.367.001 16.025.001 9.478.001 4.136 4.136.001 9.478.001c2.929 0 5.858 1.378 7.754 3.618 1.895-2.24 4.825-3.618 7.754-3.618 5.342 0 9.477 4.135 9.477 9.477 0 6.548-5.858 11.889-14.818 19.815l-2.412 2.412z"/>
    </symbol>
    <symbol id="icon-close" viewBox="5 0 25 25">
      <path stroke-width="1.333" d="M7.012 1.333 24.987 20M6.667 19.654 25.334 1.679" style="stroke:var(--color3, #000)"/>
    </symbol>
    <symbol id="icon-close1" viewBox="0 0 32 32">
      <path fill="#fff" d="M32 16c0 8.837-7.163 16-16 16S0 24.837 0 16 7.163 0 16 0s16 7.163 16 16z" style="fill:var(--color1, #fff)"/>
      <path fill="none" stroke="#000" stroke-width="1.067" d="M31.467 16c0 8.542-6.925 15.467-15.467 15.467S.533 24.542.533 16C.533 7.458 7.458.533 16 .533S31.467 7.458 31.467 16z" style="stroke:var(--color2, #000)"/>
      <path d="M22.4 10.782 21.218 9.6l-4.685 4.685L11.848 9.6l-1.182 1.182 4.685 4.685-4.685 4.685 1.182 1.182 4.685-4.685 4.685 4.685 1.182-1.182-4.685-4.685 4.685-4.685z" style="fill:var(--color2, #000)"/>
    </symbol>
    <symbol id="icon-github" viewBox="0 0 32 32">
      <path d="M16 .395c-8.836 0-16 7.163-16 16 0 7.069 4.585 13.067 10.942 15.182.8.148 1.094-.347 1.094-.77 0-.381-.015-1.642-.022-2.979-4.452.968-5.391-1.888-5.391-1.888-.728-1.849-1.776-2.341-1.776-2.341-1.452-.993.11-.973.11-.973 1.606.113 2.452 1.649 2.452 1.649 1.427 2.446 3.743 1.739 4.656 1.33.143-1.034.558-1.74 1.016-2.14-3.554-.404-7.29-1.777-7.29-7.907 0-1.747.625-3.174 1.649-4.295-.166-.403-.714-2.03.155-4.234 0 0 1.344-.43 4.401 1.64a15.353 15.353 0 0 1 4.005-.539c1.359.006 2.729.184 4.008.539 3.054-2.07 4.395-1.64 4.395-1.64.871 2.204.323 3.831.157 4.234 1.026 1.12 1.647 2.548 1.647 4.295 0 6.145-3.743 7.498-7.306 7.895.574.497 1.085 1.47 1.085 2.963 0 2.141-.019 3.864-.019 4.391 0 .426.288.925 1.099.768C27.421 29.457 32 23.462 32 16.395c0-8.837-7.164-16-16-16z"/>
    </symbol>
    <svg xmlns="http://www.w3.org/2000/svg" id="icon-arrow-left" fill="none" viewBox="0 0 16 16">
      <path stroke="#000" stroke-linecap="round" stroke-linejoin="round" stroke-width="1.333" d="M12.667 8H3.333M8 12.667 3.333 8 8 3.333"/>
    </svg>
    <svg xmlns="http://www.w3.org/2000/svg" id="icon-arrow-right" fill="none" viewBox="0 0 16 16">
      <path stroke="#000" stroke-linecap="round" stroke-linejoin="round" stroke-width="1.333" d="M3.333 8h9.334M8 12.667 12.666 8 8 3.333"/>
    </svg>
  </defs>
</svg>
